<?xml version="1.0" standalone="no"?>
<!DOCTYPE svg PUBLIC "-//W3C//DTD SVG 20010904//EN"
 "http://www.w3.org/TR/2001/REC-SVG-20010904/DTD/svg10.dtd">
<svg version="1.0" xmlns="http://www.w3.org/2000/svg"
 width="1024.000000pt" height="1024.000000pt" viewBox="0 0 1024.000000 1024.000000"
 preserveAspectRatio="xMidYMid meet">

<g transform="translate(0.000000,1024.000000) scale(0.100000,-0.100000)"
fill="#000000" stroke="none">
<path d="M8185 6866 c-90 -26 -114 -37 -108 -52 3 -9 -1 -14 -12 -14 -9 0 -13
5 -10 10 3 6 -1 10 -10 10 -10 0 -13 -5 -9 -12 5 -8 2 -9 -9 -5 -13 5 -17 1
-18 -16 0 -12 -3 -16 -6 -9 -3 9 -12 7 -33 -8 -15 -11 -32 -20 -37 -20 -5 0
-15 -10 -22 -23 -7 -13 -23 -30 -36 -38 -30 -18 -104 -116 -112 -149 -3 -13
-14 -38 -24 -55 -41 -68 -63 -253 -40 -333 10 -34 -5 -62 -35 -62 -8 0 -12 -4
-9 -10 4 -6 -5 -10 -20 -10 -20 0 -26 -4 -21 -16 3 -8 2 -13 -2 -10 -12 7
-107 -49 -105 -61 1 -6 -6 -9 -17 -6 -11 3 -20 1 -20 -5 0 -6 -9 -14 -20 -17
-11 -4 -18 -11 -15 -16 3 -5 -1 -6 -9 -3 -9 3 -16 2 -16 -2 0 -5 -18 -18 -40
-28 -29 -14 -39 -24 -35 -35 5 -12 3 -13 -5 -4 -9 8 -20 6 -46 -9 -19 -11 -31
-24 -28 -29 3 -5 2 -8 -3 -7 -14 4 -54 -23 -48 -33 4 -5 -4 -9 -17 -9 -23 0
-88 -34 -99 -52 -4 -5 -25 -11 -49 -12 -35 -2 -47 3 -70 26 -18 17 -39 28 -57
28 -15 0 -35 5 -43 11 -11 8 -9 9 10 4 16 -5 21 -4 15 2 -13 13 -118 36 -171
39 -23 1 -47 5 -54 9 -36 22 -307 -42 -296 -71 3 -7 -2 -11 -12 -9 -21 3 -72
-22 -72 -35 0 -6 -7 -10 -16 -10 -10 0 -14 -6 -11 -14 4 -10 0 -14 -12 -11
-20 4 -53 -29 -43 -42 4 -4 3 -5 -2 -1 -14 12 -34 -11 -29 -32 3 -12 0 -20 -6
-20 -7 0 -9 5 -6 10 10 16 -1 11 -16 -7 -10 -11 -10 -14 -1 -9 6 4 12 2 12 -3
0 -6 -6 -11 -14 -11 -8 0 -18 -9 -21 -20 -3 -11 -10 -20 -14 -20 -4 0 -13 -11
-19 -24 -10 -22 -9 -24 8 -21 11 2 23 -1 26 -7 4 -6 2 -8 -4 -4 -6 3 -14 1
-17 -5 -4 -5 -13 -8 -20 -5 -9 3 -19 -10 -29 -39 -16 -49 -10 -61 30 -51 22 6
24 5 12 -8 -7 -7 -17 -11 -22 -8 -5 3 -6 0 -2 -7 5 -7 14 -10 22 -7 10 4 14
-3 14 -21 0 -16 11 -39 27 -55 l27 -28 -35 -36 c-19 -19 -34 -38 -34 -42 0 -4
-4 -6 -9 -4 -5 2 -4 -4 3 -12 7 -8 19 -12 27 -9 10 4 12 0 8 -11 -8 -21 -20
-20 -28 1 -6 14 -11 12 -36 -12 -29 -27 -32 -58 -4 -34 11 9 14 6 14 -17 0
-20 -3 -25 -9 -15 -5 7 -11 9 -14 4 -8 -12 3 -54 12 -49 4 3 7 -4 8 -14 1 -11
11 -40 22 -66 18 -39 23 -45 36 -34 9 8 15 9 15 2 0 -6 -5 -14 -10 -17 -7 -4
-6 -11 2 -20 30 -33 38 -45 38 -55 0 -5 6 -10 13 -10 7 0 21 -13 30 -30 10
-16 25 -30 33 -30 8 0 25 -11 37 -24 21 -22 97 -61 97 -50 0 3 6 -1 14 -9 26
-26 152 -59 228 -61 92 -1 154 9 226 36 31 12 59 23 62 23 33 9 60 27 54 37
-4 7 -4 10 1 6 10 -9 47 10 41 21 -10 15 75 -6 94 -24 11 -10 20 -15 20 -12 0
4 9 -2 21 -14 12 -12 29 -19 39 -16 13 3 17 0 13 -9 -3 -8 0 -14 6 -14 20 0
26 -3 45 -28 12 -15 25 -22 38 -18 11 2 17 2 14 -1 -13 -13 96 -77 109 -65 5
4 5 2 1 -5 -3 -6 1 -14 11 -17 10 -3 31 -17 47 -31 17 -15 36 -23 45 -20 9 3
12 3 8 -1 -8 -9 61 -53 84 -54 9 0 20 -7 23 -16 3 -8 10 -12 16 -9 6 3 13 -1
16 -9 3 -9 10 -14 15 -11 20 13 30 -38 23 -124 -7 -92 9 -221 28 -221 5 0 7
-4 4 -9 -3 -4 4 -25 14 -47 11 -21 20 -45 20 -54 0 -12 2 -12 9 -2 6 10 10 9
14 -7 3 -14 1 -19 -6 -14 -7 4 11 -22 39 -57 29 -38 58 -64 66 -62 10 1 15 -4
14 -14 0 -10 23 -36 54 -60 44 -33 58 -40 69 -31 11 9 13 9 8 0 -5 -8 4 -18
23 -28 16 -8 30 -12 30 -8 0 5 4 3 8 -3 23 -35 300 -62 352 -34 18 10 21 9 15
-1 -6 -9 -3 -10 11 -4 10 4 29 10 42 12 12 3 25 9 28 14 3 5 14 9 25 9 10 0
24 9 31 19 6 10 16 17 23 15 13 -5 105 52 105 66 0 5 7 10 17 10 9 0 13 3 10
7 -4 3 3 11 16 18 14 7 21 19 20 33 -2 12 2 22 8 22 5 0 7 -6 3 -12 -4 -7 2
-5 14 6 12 10 19 23 16 27 -3 5 2 12 10 15 9 3 16 12 16 20 0 8 5 14 10 14 6
0 10 8 10 17 0 9 8 25 17 35 15 17 15 20 3 28 -13 8 -12 10 2 10 11 0 22 17
33 50 14 41 16 80 13 198 -3 128 -6 152 -26 190 -12 23 -31 60 -42 82 -30 58
-67 110 -74 103 -3 -4 -6 0 -6 8 0 18 -51 66 -110 105 -25 16 -48 33 -52 39
-4 5 -8 6 -8 1 0 -5 -7 -3 -15 4 -8 7 -22 9 -31 6 -12 -4 -15 -2 -10 9 3 8 2
14 -2 13 -4 -1 -25 7 -47 17 -31 14 -71 20 -177 23 -129 4 -138 3 -138 -15 0
-14 -2 -15 -9 -4 -9 14 -51 7 -51 -9 0 -5 -6 -7 -14 -4 -19 7 -107 -36 -99
-49 4 -6 -2 -8 -15 -5 -13 4 -27 -1 -38 -13 -25 -28 -53 -33 -75 -13 -12 11
-19 13 -19 5 0 -7 -5 -9 -10 -6 -6 4 -8 11 -4 16 3 5 2 9 -3 8 -21 -4 -44 2
-39 10 7 11 -42 44 -54 36 -6 -3 -10 0 -10 9 0 8 -22 25 -50 37 -27 12 -50 26
-50 31 0 11 -56 38 -64 31 -3 -4 -6 -2 -6 4 0 14 -88 75 -99 69 -5 -3 -11 1
-15 9 -3 8 -12 15 -20 15 -8 0 -16 3 -18 8 -7 15 -73 56 -90 55 -11 -1 -18 5
-19 15 0 11 -2 12 -6 4 -3 -8 -13 -3 -31 16 -27 28 -27 30 -25 168 1 76 2 141
3 144 1 3 2 8 1 13 0 4 12 7 29 7 16 0 30 4 30 9 0 5 24 21 53 36 28 15 54 30
57 34 7 8 38 27 77 48 18 9 29 21 26 26 -3 6 -2 7 4 4 5 -3 22 3 39 14 16 11
43 26 59 34 17 9 45 28 61 43 17 16 36 26 42 24 7 -2 12 1 12 7 0 6 7 11 15
11 8 0 15 3 15 8 0 4 16 16 35 26 19 11 35 23 35 28 0 4 9 8 19 8 11 0 23 9
26 21 4 12 10 18 14 13 14 -20 72 -55 81 -49 6 3 10 1 10 -6 0 -7 10 -9 25 -7
26 5 35 -6 13 -15 -7 -3 0 -6 15 -6 16 -1 26 -5 22 -11 -3 -5 0 -7 8 -4 8 3
17 -2 21 -11 3 -10 12 -15 19 -12 8 3 40 -1 73 -9 69 -16 151 -17 214 -3 25 6
53 10 63 10 9 0 15 5 11 11 -4 6 1 8 15 3 13 -4 28 -1 38 7 9 7 18 12 20 10 7
-5 102 48 139 80 65 55 115 109 109 118 -3 5 6 17 20 29 15 11 25 26 24 33 -3
26 1 39 11 33 6 -3 7 1 4 9 -3 9 -2 16 4 16 5 0 7 11 5 24 -3 13 0 27 6 30 7
5 9 1 5 -8 -3 -9 -2 -16 4 -16 12 0 34 59 27 70 -3 5 -1 11 5 15 6 4 10 62 10
146 0 90 -4 138 -10 134 -6 -3 -7 1 -4 10 8 20 -15 77 -29 68 -6 -4 -7 -1 -3
6 9 14 -13 73 -24 66 -5 -3 -6 5 -3 17 3 13 3 20 -1 16 -9 -7 -47 28 -44 40 4
11 -28 53 -35 45 -4 -3 1 -12 11 -20 15 -13 15 -13 -6 -3 -13 6 -25 24 -29 41
-5 27 -23 46 -48 48 -5 1 -10 5 -10 10 0 5 -4 13 -9 18 -5 5 -6 3 -2 -4 4 -7
3 -13 -2 -13 -5 0 -12 10 -16 23 -4 14 -9 18 -13 11 -8 -12 -26 0 -32 21 -1 6
-14 9 -29 8 -16 -1 -22 1 -15 5 7 5 -20 19 -70 36 -66 23 -101 29 -187 31 -58
1 -123 -3 -145 -9z m-15 -20 c0 -3 -4 -8 -10 -11 -5 -3 -10 -1 -10 4 0 6 5 11
10 11 6 0 10 -2 10 -4z m580 -146 c0 -5 -4 -10 -10 -10 -5 0 -10 5 -10 10 0 6
5 10 10 10 6 0 10 -4 10 -10z m160 -244 c0 -3 -4 -8 -10 -11 -5 -3 -10 -1 -10
4 0 6 5 11 10 11 6 0 10 -2 10 -4z m-1193 -98 c-3 -8 -6 -5 -6 6 -1 11 2 17 5
13 3 -3 4 -12 1 -19z m1209 10 c-2 -15 -8 -18 -33 -18 -14 0 -12 4 7 14 14 8
26 14 27 15 1 1 0 -5 -1 -11z m-1390 -383 c-9 -9 -16 -13 -16 -8 0 12 22 34
28 28 2 -2 -3 -11 -12 -20z m633 -314 c10 -7 7 -9 -12 -8 -14 1 -23 5 -20 10
6 9 15 9 32 -2z m-2029 -750 c0 -5 -7 -11 -14 -14 -10 -4 -13 -1 -9 9 6 15 23
19 23 5z m1980 -175 c0 -3 -4 -8 -10 -11 -5 -3 -10 -1 -10 4 0 6 5 11 10 11 6
0 10 -2 10 -4z m-1593 -132 c-3 -3 -12 -4 -19 -1 -8 3 -5 6 6 6 11 1 17 -2 13
-5z m848 -64 c3 -5 1 -10 -4 -10 -6 0 -11 5 -11 10 0 6 2 10 4 10 3 0 8 -4 11
-10z m1540 -298 c-3 -3 -11 0 -18 7 -9 10 -8 11 6 5 10 -3 15 -9 12 -12z
m-1185 -208 c0 -8 -4 -12 -10 -9 -5 3 -10 10 -10 16 0 5 5 9 10 9 6 0 10 -7
10 -16z m1035 -273 c3 -5 2 -12 -3 -15 -5 -3 -9 1 -9 9 0 17 3 19 12 6z m-830
-71 c3 -5 1 -10 -4 -10 -6 0 -11 5 -11 10 0 6 2 10 4 10 3 0 8 -4 11 -10z"/>
<path d="M3790 5520 c0 -5 5 -10 10 -10 6 0 10 5 10 10 0 6 -4 10 -10 10 -5 0
-10 -4 -10 -10z"/>
<path d="M3820 5519 c0 -5 5 -7 10 -4 6 3 10 8 10 11 0 2 -4 4 -10 4 -5 0 -10
-5 -10 -11z"/>
<path d="M4053 5523 c9 -2 23 -2 30 0 6 3 -1 5 -18 5 -16 0 -22 -2 -12 -5z"/>
<path d="M3876 5494 c-3 -9 -6 -25 -7 -37 -1 -16 -4 -12 -12 13 -10 29 -13
-13 -17 -240 -3 -151 -7 -277 -8 -279 -1 -3 -8 1 -14 7 -8 8 -15 58 -19 135
l-5 122 -2 -131 c-2 -119 0 -133 18 -149 19 -18 57 -14 45 5 -9 15 4 12 21 -5
19 -18 85 -20 103 -2 10 10 15 8 27 -8 12 -17 16 -18 24 -6 7 12 13 13 35 3
38 -17 95 -6 95 19 0 17 -8 19 -62 19 -35 0 -70 5 -78 10 -12 8 -16 53 -20
267 -3 142 -7 247 -8 233 l-3 -25 -13 23 c-11 20 -14 -13 -19 -226 -4 -138 -4
-257 -1 -266 5 -13 -1 -16 -30 -16 -29 0 -37 4 -42 24 -3 13 -4 137 -2 275 2
138 2 251 2 251 -1 0 -5 -7 -8 -16z m-9 -141 c-3 -10 -5 -2 -5 17 0 19 2 27 5
18 2 -10 2 -26 0 -35z"/>
<path d="M3791 5484 c0 -11 3 -14 6 -6 3 7 2 16 -1 19 -3 4 -6 -2 -5 -13z"/>
<path d="M3793 5380 c0 -47 2 -66 4 -42 2 23 2 61 0 85 -2 23 -4 4 -4 -43z"/>
<path d="M5520 4961 c0 -5 5 -13 10 -16 6 -3 10 -2 10 4 0 5 -4 13 -10 16 -5
3 -10 2 -10 -4z"/>
<path d="M5857 4943 c-4 -3 -7 -11 -7 -17 0 -6 5 -5 12 2 6 6 9 14 7 17 -3 3
-9 2 -12 -2z"/>
<path d="M5532 4746 l-2 -139 22 19 c37 32 178 176 178 181 0 2 -5 1 -12 -3
-7 -5 -27 -8 -45 -7 -33 0 -44 -11 -20 -20 6 -3 2 -6 -10 -6 -12 -1 -26 6 -31
15 -13 23 -61 8 -64 -20 -1 -11 -4 11 -8 49 -5 58 -7 46 -8 -69z m168 40 c0
-3 -4 -8 -10 -11 -5 -3 -10 -1 -10 4 0 6 5 11 10 11 6 0 10 -2 10 -4z"/>
<path d="M5774 4854 c-18 -14 -18 -15 4 -4 12 6 22 13 22 15 0 8 -5 6 -26 -11z"/>
</g>
</svg>
