<?xml version="1.0" standalone="no"?>
<!DOCTYPE svg PUBLIC "-//W3C//DTD SVG 20010904//EN"
 "http://www.w3.org/TR/2001/REC-SVG-20010904/DTD/svg10.dtd">
<svg version="1.0" xmlns="http://www.w3.org/2000/svg"
 width="1024.000000pt" height="1024.000000pt" viewBox="0 0 1024.000000 1024.000000"
 preserveAspectRatio="xMidYMid meet">

<g transform="translate(0.000000,1024.000000) scale(0.100000,-0.100000)"
fill="#000000" stroke="none">
<path d="M4480 8608 c-102 -21 -132 -29 -167 -44 -21 -9 -48 -18 -60 -19 -13
-2 -53 -13 -90 -25 -38 -12 -72 -23 -78 -25 -5 -1 -19 -5 -30 -9 -11 -5 -32
-12 -46 -17 -14 -6 -41 -12 -59 -14 -18 -3 -40 -11 -50 -20 -9 -8 -24 -15 -32
-15 -18 0 -79 -24 -91 -36 -4 -4 -15 -9 -25 -10 -9 -2 -35 -11 -57 -22 -97
-48 -151 -72 -162 -72 -6 0 -38 -13 -70 -29 -88 -43 -226 -101 -240 -101 -7 0
-13 -3 -13 -8 0 -8 -89 -42 -111 -42 -8 0 -25 -9 -39 -20 -14 -11 -33 -20 -43
-20 -12 0 -17 -6 -15 -17 5 -26 24 -20 205 63 88 41 164 74 167 74 8 0 314
129 335 141 19 11 228 91 326 125 39 13 79 28 90 33 11 5 90 28 175 52 163 46
244 55 274 30 10 -8 36 -53 58 -100 22 -47 64 -135 93 -196 76 -158 217 -493
269 -637 58 -162 94 -258 106 -283 12 -24 130 -364 174 -497 28 -89 45 -114
60 -89 5 8 -24 104 -44 146 -10 21 -48 129 -54 155 -2 9 -15 43 -29 77 -14 34
-28 77 -32 95 -8 34 -11 42 -38 96 -9 19 -17 41 -17 51 0 9 -4 21 -9 26 -11
13 -36 87 -33 99 4 14 -19 66 -29 66 -5 0 -9 11 -9 25 0 14 -9 45 -20 67 -11
23 -20 46 -20 51 0 6 -9 28 -19 51 -38 81 -63 140 -66 155 -2 9 -17 43 -33 76
-15 33 -42 90 -57 128 -16 37 -33 67 -37 67 -5 0 -8 5 -8 11 0 6 -13 40 -30
76 -16 35 -30 72 -30 82 0 9 -9 27 -20 39 -11 12 -20 31 -21 44 0 13 -9 37
-20 53 -10 17 -23 39 -28 50 -12 28 -29 41 -76 57 -25 9 -53 11 -75 6z"/>
<path d="M4204 7626 c-3 -7 3 -33 14 -57 11 -24 39 -96 62 -159 55 -150 98
-259 114 -290 16 -33 40 -109 35 -113 -17 -13 -302 -167 -507 -273 -35 -18
-69 -37 -75 -42 -32 -23 -530 -212 -607 -229 -14 -3 -29 -9 -35 -13 -5 -4 -35
-15 -65 -25 -30 -10 -68 -23 -85 -30 -94 -40 -131 -44 -141 -12 -3 12 -28 71
-55 130 -27 60 -49 113 -49 117 0 5 -24 59 -53 122 -82 174 -83 176 -61 192
64 47 678 345 827 402 95 36 224 85 287 109 63 24 135 50 159 56 43 13 62 33
45 49 -5 4 -27 0 -49 -10 -22 -9 -59 -23 -83 -30 -23 -7 -47 -19 -53 -27 -6
-7 -19 -13 -28 -13 -9 0 -41 -9 -71 -21 -30 -11 -68 -24 -83 -29 -16 -5 -34
-13 -40 -18 -7 -5 -30 -15 -52 -22 -22 -7 -46 -18 -54 -24 -7 -6 -19 -11 -25
-11 -19 -2 -70 -17 -81 -25 -5 -4 -27 -13 -47 -19 -21 -7 -38 -16 -38 -21 0
-5 -13 -11 -29 -15 -16 -3 -35 -13 -42 -21 -6 -8 -16 -14 -21 -14 -5 0 -25 -7
-46 -17 -20 -9 -41 -15 -45 -14 -13 2 -77 -39 -77 -50 0 -5 -11 -9 -24 -9 -13
0 -40 -11 -60 -25 -20 -14 -43 -25 -50 -25 -7 0 -22 -9 -34 -20 -12 -11 -25
-20 -30 -20 -5 0 -22 -7 -38 -15 -170 -91 -169 -90 -166 -116 3 -23 43 -115
83 -190 10 -20 19 -44 19 -54 0 -9 7 -29 15 -43 8 -15 19 -38 25 -52 5 -14 14
-32 19 -40 10 -18 19 -38 64 -145 39 -92 42 -93 132 -57 33 13 67 25 75 27 8
1 29 8 45 14 17 7 46 15 65 18 19 3 42 11 50 18 8 7 34 16 57 20 24 4 45 11
49 16 3 5 12 9 20 9 8 0 34 9 56 20 23 11 48 20 55 20 7 0 21 4 31 9 9 5 60
26 112 47 52 20 100 40 105 44 6 4 25 11 42 15 18 3 35 10 38 15 7 12 211 110
228 110 8 0 26 11 41 25 15 14 34 25 42 25 8 0 32 11 52 25 20 14 42 25 49 25
6 0 18 6 25 13 7 7 40 27 73 44 162 85 163 85 129 161 -16 37 -29 68 -45 107
-14 35 -23 70 -21 79 2 4 -4 19 -13 32 -8 13 -15 30 -15 38 0 8 -8 31 -19 53
-32 67 -54 118 -57 132 -2 8 -10 28 -18 45 -8 17 -18 43 -21 59 -6 29 -22 36
-31 13z"/>
<path d="M1575 7298 c4 -17 20 -61 36 -97 l28 -66 -29 -30 c-98 -102 -74 -271
44 -301 22 -5 26 -3 26 15 0 15 -6 21 -23 21 -13 0 -34 12 -48 26 -39 41 -32
155 11 202 28 29 32 28 52 -16 18 -39 88 -226 88 -235 0 -3 -13 -19 -29 -35
-57 -62 -68 -197 -20 -249 20 -22 75 -53 94 -53 3 0 5 11 5 25 0 19 -5 25 -22
25 -36 1 -69 35 -75 78 -6 48 12 115 40 148 l23 26 56 -143 57 -144 -24 -25
c-56 -58 -73 -175 -35 -237 32 -53 125 -88 113 -43 -3 12 -14 20 -27 20 -11 1
-32 10 -45 21 -41 34 -37 148 7 201 8 10 18 15 22 13 5 -3 21 -38 36 -78 15
-39 30 -76 34 -82 4 -5 15 -33 24 -61 17 -52 17 -52 -7 -78 -64 -69 -61 -225
6 -269 27 -17 72 -29 80 -21 12 12 -6 34 -27 34 -66 0 -99 126 -54 204 24 41
48 58 48 34 0 -8 22 -72 50 -143 48 -127 49 -130 31 -150 -48 -51 -66 -166
-36 -225 20 -39 62 -70 96 -70 16 0 29 3 29 8 0 16 -16 29 -31 27 -9 -2 -29 8
-45 22 -25 21 -29 32 -31 80 -1 59 10 96 37 126 18 20 18 21 98 -170 39 -92
39 -92 19 -110 -52 -46 -74 -171 -42 -234 18 -35 70 -69 103 -69 32 0 25 33
-8 40 -14 3 -36 13 -50 23 -22 15 -25 24 -25 85 0 54 5 75 24 106 l25 40 32
-70 c18 -38 47 -99 65 -136 l32 -67 -28 -33 c-39 -47 -55 -89 -55 -150 0 -66
25 -115 71 -140 45 -24 69 -23 69 2 0 15 -7 20 -27 20 -49 1 -74 32 -80 98 -4
46 -1 66 15 98 40 78 43 76 105 -71 31 -74 57 -138 57 -143 0 -5 -11 -19 -25
-32 -38 -36 -58 -100 -53 -171 4 -56 8 -65 41 -95 42 -39 101 -49 95 -16 -2
10 -11 16 -23 14 -11 -1 -33 9 -50 24 -26 22 -30 33 -32 81 0 31 4 68 10 82
12 28 46 71 57 71 4 0 22 -38 40 -85 18 -47 36 -88 40 -90 3 -2 12 0 20 5 13
8 12 16 -7 52 -12 24 -25 55 -29 70 -3 15 -12 32 -20 39 -22 18 -16 37 14 41
32 4 73 -11 86 -30 33 -54 90 -68 126 -32 43 43 10 110 -54 110 -24 0 -39 -7
-49 -20 -12 -18 -18 -19 -46 -9 -18 6 -50 9 -72 6 -25 -3 -39 -1 -39 6 0 10
-10 34 -71 162 -16 34 -32 75 -35 92 -6 31 -5 32 27 31 44 -1 64 -12 101 -54
38 -43 77 -46 107 -8 27 35 26 59 -4 89 -29 30 -68 32 -95 5 -18 -18 -25 -19
-66 -9 -34 9 -51 9 -70 0 -32 -14 -31 -15 -37 12 -8 35 -32 93 -43 108 -6 8
-16 34 -23 59 -7 25 -19 57 -26 72 -12 24 -12 29 2 36 20 12 96 -3 102 -19 2
-8 17 -27 33 -42 23 -23 34 -28 56 -22 39 9 55 29 55 66 0 60 -66 89 -114 50
-18 -15 -28 -17 -43 -9 -10 6 -40 8 -66 6 l-47 -5 -25 51 c-109 222 -114 240
-63 243 44 2 77 -14 100 -50 39 -62 125 -42 125 29 0 23 -7 38 -26 53 -34 26
-58 27 -84 1 -18 -18 -25 -19 -66 -9 -34 9 -51 9 -71 0 -14 -6 -27 -10 -28 -9
-10 11 -60 132 -91 218 -21 56 -22 66 -9 76 23 17 105 1 105 -21 0 -27 41 -65
71 -65 62 0 92 78 47 120 -27 25 -59 26 -89 1 -18 -15 -29 -17 -49 -9 -14 5
-47 8 -74 6 l-50 -3 -24 75 c-14 41 -33 93 -43 115 -9 22 -20 54 -24 72 -7 35
-8 34 82 24 7 0 19 -17 27 -36 16 -37 53 -59 83 -48 55 19 70 76 31 113 -26
24 -70 26 -92 5 -13 -13 -23 -14 -56 -5 -23 6 -55 10 -72 8 -29 -3 -32 0 -46
42 -8 25 -18 47 -22 50 -6 4 -32 72 -35 90 0 3 -6 14 -12 25 -6 11 -14 35 -18
53 l-7 33 42 -5 c45 -6 70 -20 70 -42 0 -8 9 -23 20 -34 60 -60 157 24 103 88
-26 31 -65 37 -92 14 -21 -16 -29 -17 -72 -6 -26 7 -57 10 -68 7 -16 -4 -23 3
-37 33 -9 22 -16 42 -16 47 1 4 -6 26 -17 50 -33 75 -43 101 -51 130 -8 25 -6
27 18 27 51 0 69 -11 85 -50 11 -28 23 -41 42 -46 60 -15 109 39 84 92 -19 40
-61 53 -98 31 -23 -13 -35 -14 -66 -6 -21 6 -49 9 -62 6 -20 -4 -26 2 -39 31
-8 19 -12 37 -9 40 2 3 -4 21 -14 41 -11 20 -22 44 -25 54 -3 9 -13 17 -21 17
-13 0 -15 -6 -10 -32z"/>
<path d="M8070 6451 c0 -5 10 -13 23 -16 28 -9 200 -88 207 -95 9 -10 59 -40
67 -40 21 0 -76 59 -175 106 -121 58 -122 59 -122 45z"/>
<path d="M8000 6325 c0 -5 267 -165 275 -165 3 0 24 -12 48 -27 60 -39 87 -53
87 -45 0 8 -26 24 -100 64 -25 13 -63 36 -85 50 -64 40 -214 128 -220 128 -3
0 -5 -2 -5 -5z"/>
<path d="M8380 6291 c0 -6 6 -11 13 -11 8 0 25 -12 40 -27 37 -40 54 -53 61
-46 6 7 -45 53 -86 77 -16 10 -28 13 -28 7z"/>
<path d="M7850 6094 c0 -22 274 -193 287 -180 2 2 -27 21 -64 41 -84 47 -174
108 -192 129 -14 16 -31 22 -31 10z"/>
<path d="M7724 5738 c-93 -156 -174 -292 -180 -303 -6 -11 -49 -81 -94 -155
-46 -74 -107 -175 -135 -225 -29 -49 -87 -146 -130 -215 -42 -69 -101 -165
-130 -215 -151 -259 -208 -347 -234 -358 -36 -16 -72 -43 -64 -50 3 -4 25 5
49 19 25 15 44 21 44 14 0 -6 5 -8 11 -5 6 4 8 9 5 12 -6 6 24 63 108 201 31
51 56 95 56 99 0 3 16 28 35 54 19 27 35 51 35 54 0 2 13 24 30 48 16 24 34
55 40 68 5 13 14 31 20 39 49 77 110 182 110 190 0 5 5 10 10 10 6 0 10 6 10
13 0 7 8 22 18 33 9 10 23 30 30 44 7 14 21 39 32 55 11 17 24 39 29 50 5 11
26 45 45 75 20 30 36 60 36 66 0 7 4 14 8 16 5 2 22 26 38 54 30 51 83 141
232 389 115 190 123 205 113 205 -4 0 -84 -127 -177 -282z"/>
<path d="M7995 5885 c-16 -28 -55 -94 -87 -148 -32 -54 -58 -99 -58 -101 0 -2
-26 -46 -59 -97 -32 -52 -69 -114 -83 -139 -14 -25 -46 -80 -72 -123 -25 -43
-46 -83 -46 -88 0 -5 -4 -9 -10 -9 -5 0 -10 -7 -10 -15 0 -8 -9 -24 -20 -35
-11 -11 -20 -22 -20 -25 0 -3 -31 -59 -69 -124 -38 -66 -84 -146 -102 -178
-17 -32 -45 -77 -60 -101 -16 -24 -29 -46 -29 -49 0 -4 -6 -14 -14 -22 -7 -9
-25 -36 -38 -61 -14 -25 -34 -61 -45 -80 -11 -19 -37 -64 -58 -100 -21 -36
-45 -78 -55 -95 -10 -16 -26 -45 -36 -62 -11 -19 -32 -37 -51 -43 -17 -6 -53
-22 -80 -34 -26 -13 -49 -23 -51 -21 -2 2 2 22 8 45 6 23 9 44 6 47 -5 6 -26
-64 -26 -89 0 -25 14 -23 86 13 35 17 68 28 73 25 8 -5 3 -33 -25 -158 -10
-43 21 -36 95 22 36 28 69 50 74 50 6 0 7 -19 4 -45 -4 -25 -2 -47 3 -50 9 -6
15 36 12 78 -2 19 45 110 126 247 25 41 52 89 62 105 9 17 38 64 63 105 66
109 95 161 115 200 9 19 20 37 23 40 3 3 21 32 39 65 18 33 38 66 43 74 13 16
31 45 52 86 9 17 24 44 35 60 11 17 23 37 27 45 3 8 17 32 30 53 13 20 40 68
59 105 20 37 44 76 53 87 18 23 34 49 72 120 14 28 40 72 58 99 17 28 31 54
31 59 0 4 10 23 23 40 13 18 34 53 48 80 13 26 27 47 31 47 5 0 8 6 8 14 0 8
7 21 15 30 8 8 11 17 6 20 -10 6 -28 -20 -79 -114 -29 -54 -164 -284 -372
-635 -58 -99 -120 -205 -137 -235 -16 -30 -50 -89 -75 -130 -25 -41 -76 -129
-115 -195 -234 -399 -258 -436 -293 -458 -19 -11 -42 -28 -50 -37 -21 -21 -71
-53 -76 -47 -3 2 2 24 10 48 8 24 18 64 22 89 7 48 19 70 214 400 226 381 357
604 380 645 24 42 94 162 165 280 23 39 82 138 130 220 48 83 99 167 112 188
13 21 22 44 20 50 -2 6 -16 -11 -32 -38z"/>
<path d="M8157 5909 c7 -7 15 -10 18 -7 3 3 -2 9 -12 12 -14 6 -15 5 -6 -5z"/>
<path d="M8220 5884 c19 -9 43 -20 53 -25 12 -7 17 -5 17 5 0 7 -12 16 -27 20
-16 3 -39 8 -53 11 -17 4 -14 1 10 -11z"/>
<path d="M1018 5749 c-16 -9 -15 -14 10 -54 15 -25 49 -77 77 -115 45 -65 48
-73 35 -93 -33 -53 -40 -76 -40 -137 0 -98 41 -153 124 -167 32 -5 36 -3 36
16 0 16 -6 21 -25 21 -44 0 -82 27 -95 65 -18 55 -9 135 18 165 23 24 24 24
35 7 7 -11 44 -69 84 -130 71 -110 72 -112 53 -132 -28 -30 -40 -70 -40 -132
0 -93 55 -163 129 -163 24 0 31 4 31 20 0 16 -6 20 -27 18 -79 -6 -126 94 -91
193 25 71 30 68 121 -68 l85 -127 -27 -35 c-23 -31 -26 -43 -26 -116 0 -74 3
-85 28 -118 41 -54 143 -76 130 -28 -3 13 -11 17 -24 14 -88 -23 -142 132 -80
229 l18 30 21 -34 c30 -48 122 -180 139 -200 13 -14 12 -21 -13 -57 -49 -75
-46 -183 9 -245 27 -32 40 -39 81 -43 44 -5 49 -4 43 11 -4 10 -7 20 -7 22 0
2 -11 4 -25 4 -15 0 -39 7 -55 15 -53 28 -65 144 -22 215 l19 31 87 -132 87
-131 -20 -22 c-66 -71 -50 -233 29 -279 29 -17 84 -26 95 -15 11 11 -8 39 -23
33 -28 -10 -80 17 -94 49 -21 51 -17 147 9 179 l21 28 25 -33 c13 -18 44 -64
67 -103 24 -38 52 -80 63 -92 19 -21 19 -24 4 -41 -67 -74 -58 -238 17 -287
30 -20 106 -32 106 -17 0 25 -12 40 -31 35 -86 -23 -142 133 -81 229 l19 29
64 -91 c35 -51 74 -107 87 -125 l23 -33 -26 -40 c-76 -116 -19 -292 96 -292
33 0 40 3 37 18 -2 11 -13 17 -29 17 -36 0 -74 22 -90 53 -20 37 -17 141 5
175 10 15 21 27 25 27 4 0 44 -56 90 -124 l82 -123 -25 -38 c-66 -96 -37 -242
54 -279 59 -23 82 -21 78 7 -2 13 -9 21 -18 19 -33 -8 -86 20 -100 51 -21 46
-18 148 6 180 10 15 22 27 26 27 3 0 30 -38 59 -85 29 -47 55 -88 59 -90 4 -3
13 2 19 9 10 12 3 27 -31 78 -24 34 -51 71 -60 80 -26 26 -22 35 17 42 36 7
80 -9 104 -38 33 -39 111 1 111 56 0 31 -41 68 -75 68 -13 0 -34 -12 -47 -28
-19 -23 -31 -28 -68 -27 -25 0 -55 -4 -67 -8 -17 -6 -23 -5 -23 6 0 8 -9 22
-20 32 -11 10 -20 22 -20 27 0 5 -19 34 -42 65 -55 71 -80 112 -74 122 3 4 23
8 45 9 33 2 46 -3 72 -28 18 -16 43 -30 56 -30 29 0 73 42 73 70 0 28 -43 70
-73 70 -22 0 -67 -32 -67 -48 0 -4 -23 -5 -50 -4 -31 3 -57 -1 -66 -8 -8 -7
-16 -11 -17 -9 -2 2 -17 27 -35 54 -17 28 -38 57 -46 65 -8 8 -26 37 -40 64
-14 27 -31 55 -37 63 -16 19 -6 25 40 25 30 -1 47 -8 72 -31 37 -35 67 -39
100 -13 31 26 31 78 0 104 -31 25 -67 23 -95 -6 -19 -18 -38 -24 -90 -28 -42
-4 -66 -2 -66 5 0 5 -16 29 -35 53 -19 23 -35 46 -35 51 0 5 -13 24 -30 43
-16 18 -32 42 -36 52 -3 10 -10 18 -15 18 -19 0 -8 28 14 34 35 8 69 -4 100
-37 23 -25 32 -28 60 -23 40 8 57 30 57 72 0 61 -70 85 -115 40 -20 -20 -36
-25 -91 -28 -60 -3 -68 -1 -74 17 -4 12 -15 27 -24 34 -9 7 -16 19 -16 26 0 8
-3 15 -7 17 -5 2 -31 37 -59 80 l-52 76 33 6 c41 8 63 0 97 -36 31 -33 56 -35
92 -7 17 14 26 30 26 50 0 63 -79 93 -118 45 -16 -21 -25 -24 -59 -19 -22 3
-50 0 -61 -6 -17 -9 -25 -7 -42 11 -11 12 -20 27 -20 34 0 6 -6 14 -13 17 -7
3 -28 35 -46 71 -18 37 -41 72 -52 79 -34 21 -24 44 23 45 36 2 46 -3 74 -33
17 -19 41 -35 53 -35 29 0 71 43 71 73 0 58 -79 88 -121 46 -28 -28 -146 -34
-154 -8 -3 9 -12 20 -20 23 -8 3 -15 11 -15 17 0 7 -12 28 -27 48 -16 20 -45
61 -65 91 l-38 55 28 7 c37 10 60 1 98 -38 37 -40 66 -43 99 -9 30 30 31 54 4
89 -25 31 -70 35 -98 7 -13 -13 -37 -20 -82 -23 l-64 -4 -41 56 c-22 30 -42
60 -43 65 -2 6 -15 26 -30 45 -15 19 -34 47 -44 61 -16 27 -16 27 17 33 41 8
60 1 80 -29 37 -56 102 -52 127 6 10 26 9 34 -8 57 -26 35 -76 41 -107 14 -14
-14 -40 -21 -82 -24 l-61 -4 -41 55 c-23 31 -42 63 -42 72 0 9 -10 24 -21 35
-12 10 -27 31 -33 46 -9 21 -15 24 -28 17z"/>
<path d="M5925 5331 c-5 -9 53 -145 90 -211 7 -14 23 -50 35 -80 12 -30 51
-119 86 -198 72 -157 73 -173 26 -217 -38 -36 -156 -94 -227 -113 -33 -8 -131
-41 -217 -73 -87 -33 -162 -59 -168 -59 -5 0 -10 -9 -10 -20 0 -23 17 -26 45
-6 11 7 35 17 53 21 17 3 32 10 32 15 0 4 15 11 33 14 17 3 72 21 120 40 48
19 91 35 95 36 23 3 90 26 108 37 11 7 24 10 28 6 4 -4 10 -3 14 2 7 10 62 38
95 49 11 3 21 15 24 25 3 11 11 22 19 25 28 11 35 54 18 104 -8 26 -19 49 -23
52 -4 3 -20 37 -35 75 -15 39 -38 90 -52 114 -13 24 -24 47 -24 52 0 5 -22 55
-50 113 -27 58 -50 113 -50 124 0 11 -7 25 -15 32 -8 7 -15 21 -15 31 0 20
-24 26 -35 10z"/>
<path d="M2863 4629 c-19 -20 -26 -21 -65 -11 -115 29 -208 -62 -208 -202 0
-26 7 -60 15 -76 30 -59 125 -97 125 -50 0 15 -7 20 -27 20 -50 1 -75 32 -80
103 -3 52 0 69 19 102 53 91 143 108 205 39 24 -27 41 -37 63 -37 39 0 70 29
70 65 0 60 -74 90 -117 47z"/>
<path d="M2994 4315 c-20 -20 -29 -23 -50 -15 -55 21 -129 3 -171 -42 -55 -58
-71 -181 -33 -243 33 -53 120 -86 120 -45 0 15 -7 20 -27 20 -49 1 -74 32 -80
97 -6 72 12 118 63 163 33 29 42 32 83 28 36 -4 54 -12 83 -41 39 -40 70 -46
106 -21 47 33 14 124 -45 124 -13 0 -35 -11 -49 -25z"/>
<path d="M8837 4138 l-147 -50 29 -33 c16 -18 34 -51 41 -72 7 -21 15 -42 18
-47 5 -8 252 233 252 246 0 16 -49 5 -193 -44z"/>
<path d="M5140 4150 c-14 -11 -33 -20 -42 -20 -9 0 -20 -5 -24 -11 -6 -11
-119 -65 -119 -58 0 2 -14 -6 -32 -19 -17 -12 -35 -22 -40 -22 -5 0 -14 -5
-21 -12 -6 -6 -21 -13 -32 -15 -11 -2 -38 -14 -60 -28 -22 -14 -46 -25 -55
-25 -8 0 -15 -4 -15 -9 0 -10 -55 -34 -83 -36 -11 -1 -25 -9 -32 -18 -7 -10
-20 -17 -30 -17 -9 0 -29 -8 -43 -19 -15 -10 -39 -21 -54 -25 -16 -3 -28 -11
-28 -16 0 -6 -8 -10 -18 -10 -10 0 -22 -4 -28 -8 -5 -5 -27 -16 -49 -24 -55
-22 -152 -65 -200 -89 -51 -26 -148 -64 -157 -61 -4 1 -25 -7 -45 -17 -21 -10
-56 -27 -78 -36 -22 -9 -72 -32 -111 -51 -40 -19 -75 -34 -78 -34 -3 0 -29
-11 -58 -25 -28 -14 -55 -25 -60 -25 -4 0 -31 -11 -60 -24 -127 -57 -149 -66
-161 -66 -7 0 -22 -7 -33 -15 -10 -8 -27 -15 -36 -15 -20 0 -22 -8 -10 -28 6
-9 31 -2 102 29 52 22 106 47 120 54 14 8 81 36 150 64 153 61 363 151 450
193 36 17 85 39 110 48 94 36 400 175 530 241 74 38 212 107 307 153 150 73
170 86 160 99 -11 15 -14 15 -37 -3z"/>
<path d="M6013 4163 c-21 -7 -16 -20 35 -96 27 -40 65 -101 86 -136 l37 -65
-16 -37 c-27 -60 -90 -111 -235 -193 -105 -59 -370 -236 -370 -247 0 -23 27
-17 75 17 30 20 55 41 55 45 0 4 10 11 23 15 12 4 38 18 57 33 19 14 44 31 55
38 11 7 66 41 123 75 56 35 111 68 121 73 10 6 35 27 57 47 21 21 47 43 57 50
28 21 34 117 8 144 -10 12 -27 36 -36 55 -10 19 -22 37 -27 40 -6 4 -29 38
-51 76 -24 40 -47 68 -54 66z"/>
<path d="M3122 3995 c-11 -13 -22 -22 -25 -19 -16 16 -85 22 -117 11 -92 -33
-135 -105 -128 -213 5 -81 36 -120 111 -138 23 -5 27 -3 27 14 0 14 -7 20 -22
20 -13 0 -36 11 -52 25 -62 54 -38 198 41 251 28 19 58 23 104 15 4 -1 24 -17
45 -36 62 -56 137 -39 137 30 0 62 -82 89 -121 40z"/>
<path d="M8011 3784 c-12 -21 -26 -46 -30 -54 -4 -8 -50 -43 -102 -78 -52 -34
-95 -67 -97 -72 -2 -6 -8 -10 -12 -10 -5 0 -26 -11 -47 -25 -21 -14 -45 -30
-53 -35 -8 -5 -32 -21 -53 -35 -21 -14 -40 -25 -44 -25 -3 0 -19 -11 -37 -25
-47 -38 -44 -36 -154 -110 -146 -99 -215 -144 -232 -152 -19 -9 -155 -101
-241 -165 -37 -26 -72 -48 -78 -48 -6 0 -11 -4 -11 -8 0 -5 -12 -15 -27 -23
-28 -14 -143 -89 -153 -99 -3 -3 -43 -31 -90 -62 -177 -119 -206 -138 -235
-158 -19 -13 -24 -20 -14 -20 9 0 27 8 40 19 13 10 224 152 469 316 245 164
454 306 466 316 11 11 23 19 27 19 5 0 335 219 416 277 109 77 285 183 304
183 14 0 41 7 61 15 32 14 36 14 36 0 0 -9 -9 -35 -19 -58 -11 -24 -22 -54
-26 -67 -4 -17 -36 -45 -103 -90 -53 -36 -98 -68 -100 -72 -2 -5 -7 -8 -12 -8
-7 0 -51 -28 -162 -102 -15 -10 -31 -18 -36 -18 -5 0 -17 -9 -27 -20 -10 -11
-22 -20 -27 -20 -4 0 -38 -21 -76 -47 -37 -26 -78 -54 -92 -63 -14 -9 -53 -35
-87 -58 -33 -23 -66 -42 -71 -42 -5 0 -12 -7 -16 -15 -3 -8 -10 -15 -16 -15
-6 0 -87 -52 -181 -115 -94 -64 -185 -123 -201 -133 -51 -28 -120 -73 -128
-82 -15 -17 -268 -182 -317 -207 -31 -16 -44 -33 -24 -33 5 0 37 20 72 45 35
25 76 52 91 60 15 8 159 102 321 209 277 183 360 237 399 261 9 5 90 59 180
119 89 60 201 134 248 165 47 30 90 59 95 64 39 31 289 186 295 182 7 -5 53 7
95 25 28 12 65 19 65 13 0 -10 -36 -67 -57 -91 -13 -14 -23 -31 -23 -38 0 -8
-4 -14 -10 -14 -5 0 -10 -6 -10 -12 -1 -11 -54 -50 -154 -112 -51 -31 -215
-138 -309 -202 -49 -32 -103 -68 -120 -79 -33 -20 -363 -235 -552 -360 -60
-40 -143 -93 -183 -119 -40 -25 -79 -51 -85 -56 -7 -6 -73 -49 -147 -97 -74
-48 -137 -88 -139 -90 -2 -2 -1 -6 2 -9 4 -4 52 24 108 62 56 38 109 74 118
79 17 10 109 70 163 107 15 10 30 18 34 18 3 0 16 8 29 18 29 22 38 28 160
108 55 36 102 70 103 75 2 5 8 9 14 9 5 0 23 9 39 21 16 11 29 17 29 13 0 -4
8 0 19 10 10 9 76 54 147 101 71 46 134 88 139 93 36 29 106 72 119 72 9 0 16
4 16 10 0 5 16 17 35 26 19 9 35 20 35 25 0 5 4 9 10 9 5 0 48 27 95 60 47 33
88 60 90 60 2 0 33 20 68 45 36 25 68 45 72 45 4 0 18 9 33 20 14 12 38 20 56
19 17 -1 42 4 56 10 21 9 17 10 -27 5 -33 -4 -53 -2 -53 4 0 6 15 30 33 54 94
125 90 136 -31 98 -105 -33 -108 -30 -66 75 15 36 24 69 20 72 -6 6 -34 0
-118 -24 -24 -7 -23 12 3 48 11 16 19 35 17 41 -2 6 -14 -6 -27 -28z"/>
<path d="M3257 3686 c-21 -23 -26 -24 -64 -13 -32 8 -51 8 -83 -3 -88 -29
-129 -91 -130 -193 0 -89 36 -143 104 -154 32 -5 36 -3 36 16 0 16 -6 21 -27
21 -49 1 -74 32 -80 97 -6 72 13 119 64 163 33 27 44 31 83 27 33 -3 54 -12
80 -35 44 -41 63 -46 97 -30 41 19 52 61 26 96 -28 38 -75 42 -106 8z"/>
<path d="M6472 3388 c-46 -166 -48 -181 -29 -176 11 3 237 241 237 251 0 2
-19 9 -42 16 -24 7 -60 23 -80 37 -21 13 -39 24 -41 24 -2 0 -22 -69 -45 -152z"/>
<path d="M2860 3300 c-23 -25 -36 -30 -75 -30 -91 0 -153 -64 -162 -169 -10
-105 51 -191 135 -191 26 0 32 4 32 21 0 18 -5 20 -26 16 -61 -11 -107 48
-108 139 -1 129 102 197 199 131 47 -32 78 -34 105 -7 29 29 26 74 -6 99 -37
29 -61 26 -94 -9z"/>
<path d="M5290 3243 c-25 -15 -49 -33 -53 -40 -4 -7 -12 -13 -18 -13 -14 0
-172 -100 -177 -112 -2 -5 -12 -8 -21 -8 -10 0 -26 -9 -36 -20 -10 -11 -23
-20 -28 -20 -6 0 -18 -7 -28 -16 -22 -19 -71 -48 -126 -74 -24 -11 -43 -24
-43 -30 0 -5 -6 -10 -12 -10 -7 0 -42 -19 -77 -43 -35 -23 -71 -46 -80 -52 -9
-5 -18 -12 -21 -15 -8 -8 -43 -29 -60 -37 -8 -3 -35 -22 -60 -42 -24 -20 -47
-36 -51 -36 -3 0 -32 -19 -63 -42 -31 -24 -61 -43 -66 -43 -6 0 -10 -4 -10 -8
0 -9 -62 -48 -71 -45 -4 1 -17 -9 -29 -22 -13 -14 -27 -25 -32 -25 -9 0 -82
-51 -119 -82 -8 -7 -42 -31 -74 -53 -63 -42 -88 -61 -114 -85 -9 -8 -29 -21
-44 -29 -15 -8 -27 -18 -27 -23 0 -4 -6 -8 -13 -8 -8 0 -22 -9 -32 -20 -10
-11 -24 -20 -30 -20 -7 0 -15 -6 -18 -14 -3 -7 -25 -23 -49 -35 -65 -33 -105
-68 -91 -82 8 -8 23 -3 60 22 53 36 125 90 133 100 3 4 32 23 65 44 33 21 101
68 150 104 50 36 133 94 185 129 52 35 124 86 160 113 57 44 346 233 477 313
26 16 93 58 148 94 55 35 181 113 280 173 99 61 180 115 180 121 0 20 -19 18
-65 -9z"/>
<path d="M3072 3039 c-13 -5 -26 -18 -29 -29 -5 -17 -14 -20 -59 -20 -98 0
-161 -67 -171 -178 -8 -96 52 -182 128 -185 28 -2 35 2 37 21 3 20 0 22 -21
17 -15 -4 -37 0 -55 9 -46 24 -59 63 -53 173 1 22 13 44 40 72 34 35 45 41 82
41 30 0 52 -7 75 -25 18 -14 43 -25 56 -25 66 0 94 78 42 119 -29 23 -38 24
-72 10z"/>
<path d="M3262 2758 c-12 -6 -25 -21 -28 -33 -5 -19 -11 -21 -57 -17 -46 3
-57 0 -95 -28 -50 -37 -70 -72 -79 -135 -14 -103 54 -205 136 -205 34 0 38 3
34 20 -4 14 -14 20 -32 20 -38 0 -79 21 -87 45 -3 11 -8 27 -11 35 -12 39 -4
128 14 150 60 74 117 88 182 45 48 -32 87 -30 114 7 18 24 19 30 7 58 -7 18
-24 36 -37 41 -29 11 -32 11 -61 -3z"/>
<path d="M6210 2624 c0 -9 81 -98 94 -103 6 -2 -2 10 -17 28 -15 18 -27 36
-27 39 -1 9 -50 45 -50 36z"/>
<path d="M6335 2470 c47 -81 105 -203 111 -237 3 -18 11 -33 16 -33 26 0 -67
205 -130 285 -20 26 -19 23 3 -15z"/>
<path d="M3446 2469 c-14 -11 -26 -26 -26 -33 0 -9 -18 -14 -56 -15 -109 -3
-168 -70 -169 -191 0 -82 28 -134 90 -161 49 -22 85 -16 78 12 -4 14 -11 17
-29 13 -33 -9 -79 22 -94 65 -8 20 -13 62 -12 94 2 51 6 62 38 97 49 53 97 61
157 26 50 -30 88 -33 111 -10 38 37 27 96 -20 114 -34 13 -38 13 -68 -11z"/>
<path d="M5990 2463 c0 -6 37 -67 83 -135 45 -67 102 -153 125 -190 23 -38 47
-68 54 -68 6 0 4 8 -5 18 -10 10 -17 21 -17 25 0 10 -123 191 -132 195 -5 2
-8 10 -8 18 0 8 -4 14 -10 14 -5 0 -10 5 -10 10 0 6 -16 34 -36 63 -45 64 -44
63 -44 50z"/>
<path d="M5871 2381 c-1 -19 93 -194 138 -256 54 -76 113 -145 124 -145 5 0
-10 21 -32 48 -60 69 -150 205 -193 292 -20 41 -37 69 -37 61z"/>
</g>
</svg>
