<?xml version="1.0" standalone="no"?>
<!DOCTYPE svg PUBLIC "-//W3C//DTD SVG 20010904//EN"
 "http://www.w3.org/TR/2001/REC-SVG-20010904/DTD/svg10.dtd">
<svg version="1.0" xmlns="http://www.w3.org/2000/svg"
 width="1024.000000pt" height="1024.000000pt" viewBox="0 0 1024.000000 1024.000000"
 preserveAspectRatio="xMidYMid meet">

<g transform="translate(0.000000,1024.000000) scale(0.100000,-0.100000)"
fill="#000000" stroke="none">
<path d="M3400 9560 c0 -657 1 -681 20 -733 36 -95 91 -139 201 -162 68 -13
278 -45 439 -65 628 -79 976 -105 1228 -89 310 19 723 63 1107 119 193 28 195
28 201 18 3 -4 20 -8 39 -8 38 0 49 -11 40 -40 -5 -15 -15 -20 -41 -20 l-34 0
0 -141 0 -141 34 25 c18 15 36 23 40 20 3 -4 6 -28 6 -54 0 -43 -4 -52 -40
-85 -28 -26 -40 -45 -40 -65 0 -43 26 -43 81 1 45 35 99 53 99 33 0 -4 -15
-20 -32 -35 l-33 -28 291 0 c314 0 304 -2 304 51 0 16 6 20 28 17 22 -2 28 -8
30 -34 3 -27 8 -33 35 -37 41 -6 57 1 57 23 0 33 12 50 35 50 19 0 24 -6 27
-32 l3 -33 290 -3 289 -2 -36 33 -36 33 55 12 56 12 50 -37 c47 -35 50 -36 63
-18 24 33 15 53 -46 100 -57 44 -74 75 -50 90 6 3 10 1 10 -4 0 -6 6 -11 13
-11 8 0 24 -11 37 -25 13 -14 27 -25 32 -25 4 0 8 70 8 155 l0 155 -44 0 c-46
0 -72 19 -62 45 4 11 20 15 55 15 45 0 51 3 57 24 3 13 4 37 2 52 -3 28 -5 29
-61 32 -54 3 -58 5 -55 25 3 19 10 22 56 25 l52 3 0 185 0 185 -47 -36 c-25
-19 -50 -32 -53 -28 -4 5 -10 27 -13 50 -5 40 -3 45 34 74 21 17 39 35 39 40
0 5 -23 9 -51 9 -44 0 -58 -5 -95 -35 -24 -20 -53 -35 -68 -35 -33 0 -33 15
-1 36 14 9 25 20 25 25 0 6 -107 8 -252 7 l-253 -3 -3 -33 c-3 -29 -6 -33 -30
-30 -22 2 -28 9 -30 36 -3 31 -5 32 -47 32 -42 0 -44 -1 -47 -32 -2 -28 -7
-33 -28 -33 -20 0 -26 6 -30 30 l-5 30 -233 3 -232 2 0 480 0 480 -1720 0
-1720 0 0 -680z m2904 106 c93 -28 149 -85 114 -114 -30 -23 -56 -23 -93 3
-54 36 -139 32 -181 -9 -54 -54 -42 -167 22 -207 47 -29 132 -23 169 11 25 23
26 23 61 7 48 -23 43 -52 -16 -92 -38 -25 -57 -30 -118 -34 -90 -4 -148 16
-192 65 -41 47 -60 97 -60 155 0 103 65 186 170 215 60 16 69 16 124 0z
m-2294 -222 l0 -215 -42 3 -43 3 -3 165 c-2 116 -6 166 -15 172 -6 4 -33 8
-59 8 l-48 0 0 40 0 40 105 0 105 0 0 -216z m120 176 c0 -39 -1 -40 -34 -40
-35 0 -45 8 -64 53 l-12 27 55 0 55 0 0 -40z m180 -60 l0 -100 48 0 c67 1 89
22 84 81 -2 17 -42 39 -72 39 -18 0 -50 44 -50 70 0 6 26 10 63 10 103 0 157
-49 157 -144 0 -39 -6 -52 -36 -86 l-36 -40 41 -69 c22 -38 41 -74 41 -80 0
-6 -20 -11 -45 -11 l-46 0 -47 75 c-39 63 -51 75 -74 75 -27 0 -27 -1 -30 -72
l-3 -73 -45 0 -45 0 -3 213 -2 212 50 0 50 0 0 -100z m597 0 c19 -52 38 -104
43 -115 30 -76 70 -189 70 -201 0 -10 -13 -14 -46 -14 -44 0 -46 2 -62 40
l-17 40 -82 0 -83 0 -17 -37 c-16 -33 -23 -38 -57 -41 -21 -2 -43 1 -48 6 -7
7 2 43 25 104 19 51 47 127 62 168 15 41 30 84 35 95 4 11 11 28 14 38 5 15
15 17 67 15 l61 -3 35 -95z m285 -67 l3 -168 70 2 c68 1 71 3 103 39 26 31 32
46 32 85 0 40 -5 53 -32 82 -26 27 -44 36 -84 41 -46 7 -53 11 -67 42 -10 19
-17 37 -17 40 0 3 38 4 84 3 76 -4 88 -7 123 -35 57 -46 85 -103 85 -172 0
-70 -20 -117 -64 -157 -60 -55 -75 -59 -205 -63 l-123 -4 0 216 0 216 45 0 45
0 2 -167z m478 17 c0 -137 2 -152 20 -170 13 -13 33 -20 60 -20 27 0 47 7 60
20 18 18 20 33 20 171 l0 150 48 -3 47 -3 0 -165 c0 -155 -1 -167 -22 -196
-31 -44 -79 -64 -153 -64 -75 0 -122 20 -150 65 -18 29 -20 49 -20 199 l0 166
45 0 45 0 0 -150z m1695 -545 l0 -210 -287 -3 c-233 -2 -288 0 -288 11 0 28
25 37 99 37 l76 1 -25 20 c-14 12 -42 35 -62 51 -29 23 -38 38 -38 60 0 40 9
36 124 -57 l95 -76 58 3 57 3 -108 85 c-60 47 -113 90 -120 95 -6 6 -32 27
-59 48 -43 35 -47 42 -47 82 0 39 13 67 22 48 1 -5 35 -33 73 -63 39 -30 75
-59 81 -65 6 -5 52 -41 102 -79 51 -39 92 -73 92 -78 0 -4 5 -8 10 -8 6 0 23
-11 38 -25 36 -33 47 -32 47 7 1 18 2 100 3 181 l2 148 28 -3 27 -3 0 -210z
m155 60 c0 -85 3 -155 6 -155 3 0 26 17 52 38 26 21 74 60 107 86 33 26 67 52
75 59 8 7 35 28 60 47 25 19 47 38 48 42 2 5 8 8 14 8 5 0 16 7 24 15 16 15
74 21 74 8 -1 -5 -40 -37 -87 -73 -48 -36 -91 -70 -97 -76 -6 -5 -43 -35 -81
-65 -39 -30 -99 -76 -134 -104 l-64 -50 58 -3 c48 -3 62 1 88 22 18 13 124 97
237 186 185 145 206 159 217 143 18 -24 16 -67 -4 -90 -10 -11 -52 -46 -93
-79 -41 -32 -77 -61 -80 -64 -3 -3 -23 -19 -45 -35 -22 -16 -47 -35 -55 -42
-8 -7 -24 -19 -35 -27 -18 -14 -3 -15 146 -16 146 0 168 -2 173 -17 4 -9 3
-20 -2 -25 -4 -4 -154 -7 -333 -6 l-324 3 -3 200 c-1 110 0 205 2 212 3 7 17
13 31 13 l25 0 0 -155z m-166 -391 c14 -5 16 -33 16 -209 0 -200 0 -204 -22
-211 -41 -13 -48 15 -48 198 l0 168 -22 -19 c-23 -20 -158 -128 -273 -219 -33
-26 -61 -50 -63 -54 -2 -5 -8 -8 -13 -8 -6 0 -20 -9 -32 -21 -33 -31 -77 -51
-95 -44 -17 6 -10 15 53 63 6 4 80 63 165 131 85 68 167 133 182 144 15 12 28
25 28 30 0 4 -21 7 -48 7 -54 0 -64 -6 -257 -160 -171 -136 -202 -160 -209
-160 -3 0 -6 27 -6 60 0 48 4 61 19 70 11 5 25 16 33 23 7 7 54 44 103 82 l90
70 -120 5 -120 5 -3 28 -3 27 315 0 c173 0 321 -3 330 -6z m772 -9 c14 -36
-13 -45 -144 -45 l-125 0 29 -22 c16 -13 36 -28 44 -35 48 -39 142 -113 158
-125 26 -18 42 -52 33 -67 -6 -10 -17 -6 -42 16 -19 16 -96 78 -171 136 -133
104 -138 107 -187 107 -28 0 -51 -4 -51 -8 0 -5 34 -35 76 -68 99 -76 336
-264 349 -276 15 -14 -15 -28 -61 -28 -31 0 -55 9 -90 33 -49 33 -328 252
-374 294 -45 41 -47 35 -49 -144 -1 -94 -6 -172 -12 -178 -6 -6 -16 -6 -27 1
-15 10 -17 34 -20 204 -2 133 1 197 9 206 9 11 72 14 331 14 275 0 319 -2 324
-15z"/>
<path d="M4808 9534 c-6 -8 -48 -125 -48 -131 0 -2 23 -3 51 -3 48 0 50 1 43
23 -27 85 -41 120 -46 111z"/>
<path d="M1310 8295 c-30 -7 -62 -14 -70 -16 -50 -13 -164 -113 -189 -166 -8
-15 -19 -39 -25 -52 -17 -37 -16 -1688 2 -1724 6 -15 18 -39 25 -54 35 -77
158 -161 267 -183 81 -16 2636 -9 2704 8 128 31 217 123 265 273 14 45 16
1610 2 1637 -6 9 -18 40 -27 67 -28 77 -120 163 -209 195 l-70 25 -1310 2
c-1028 1 -1322 -2 -1365 -12z m2691 -56 c97 -31 179 -90 194 -140 4 -11 11
-19 16 -19 5 0 9 -11 9 -24 0 -14 4 -28 10 -31 14 -9 14 -1641 0 -1650 -5 -3
-10 -17 -10 -31 0 -13 -4 -24 -9 -24 -5 0 -13 -10 -17 -22 -10 -34 -72 -90
-134 -121 l-55 -27 -1351 0 -1350 0 -60 30 c-107 53 -161 123 -175 230 -6 40
-9 395 -7 842 l3 773 31 54 c38 69 107 128 176 152 50 17 128 18 1374 18 935
1 1331 -2 1355 -10z"/>
<path d="M9228 7788 l-3 -33 -500 0 -500 0 0 -515 0 -515 500 0 500 0 3 -32
c3 -29 7 -32 45 -38 23 -4 146 -5 274 -3 207 3 234 5 250 21 17 17 18 51 14
570 -2 355 -7 556 -13 565 -8 9 -78 12 -289 12 l-278 0 -3 -32z m-14 -64 c14
-5 16 -57 16 -484 l0 -478 -62 -7 c-75 -9 -890 4 -901 14 -4 4 -6 218 -5 477
l3 469 205 5 c321 9 727 11 744 4z"/>
<path d="M5025 7748 c-3 -7 -6 -76 -7 -153 l-3 -140 -40 -3 -40 -3 0 -407 0
-407 836 0 c809 0 838 1 858 19 21 19 21 25 21 408 l0 388 -35 0 -35 0 -1 78
c-4 185 -7 204 -45 221 -38 17 -1503 16 -1509 -1z m1497 -25 c16 -14 18 -33
18 -145 l0 -128 -452 0 -453 -1 -115 -110 c-199 -190 -297 -279 -307 -279 -6
0 -16 6 -22 14 -9 11 -4 21 22 47 44 45 218 210 290 277 l58 52 -55 0 c-34 0
-58 -5 -63 -13 -4 -7 -32 -33 -62 -57 -30 -25 -69 -60 -87 -79 -35 -35 -64
-37 -64 -3 0 17 50 70 118 125 l34 27 -160 0 c-137 0 -161 2 -166 16 -3 9 -6
67 -6 129 0 62 3 120 6 129 6 14 79 16 727 16 656 0 722 -1 739 -17z"/>
<path d="M4520 6354 c0 -152 -22 -231 -87 -312 -26 -31 -51 -59 -57 -62 -6 -3
232 -7 529 -10 l540 -5 3 -122 3 -123 -1581 0 -1580 0 0 -1464 c0 -1027 3
-1467 11 -1471 6 -4 13 -4 17 0 4 4 8 656 10 1450 l2 1443 32 6 c40 8 3052 8
3073 0 13 -5 15 -45 15 -295 l0 -289 854 0 855 0 15 22 c14 19 16 64 16 290
l0 268 240 0 240 0 0 -364 0 -365 48 -3 47 -3 3 -137 3 -138 737 0 c715 0 738
1 769 20 l32 19 3 118 3 118 38 3 37 3 0 167 c0 92 3 271 7 397 l6 230 -24 27
-24 26 -842 7 -843 6 0 -33 c0 -60 5 -59 -246 -56 l-229 3 0 120 0 120 568 3
569 2 -4 178 c-3 159 -5 181 -25 222 -13 26 -39 56 -60 70 l-38 25 -1842 3
-1843 2 0 -116z m1800 -295 c-64 -57 -100 -74 -100 -44 0 14 18 33 100 104 31
27 37 29 50 15 13 -14 8 -22 -50 -75z m-230 37 c0 -16 -37 -28 -46 -15 -3 5
-2 18 1 29 5 16 10 18 26 10 10 -6 19 -17 19 -24z m393 -10 c4 -9 -17 -34 -55
-68 -34 -29 -102 -88 -151 -131 -70 -62 -91 -76 -102 -67 -22 19 -16 25 170
187 118 102 127 107 138 79z m174 -2 c4 -13 -465 -463 -499 -478 -14 -7 -22
-6 -29 5 -7 11 7 30 60 79 38 36 134 126 213 200 78 75 161 153 183 173 39 36
65 44 72 21z m-769 -28 c15 -25 29 -35 57 -40 l37 -7 -26 -28 c-20 -20 -26
-37 -26 -69 l0 -42 -35 17 c-33 16 -37 16 -64 0 -41 -24 -43 -22 -36 27 6 36
4 46 -12 57 -37 27 -35 38 6 49 29 8 43 18 53 40 7 17 16 30 19 30 4 0 16 -15
27 -34z m242 -97 c0 -14 -7 -19 -25 -19 -18 0 -25 5 -25 19 0 11 6 21 13 24
20 7 37 -4 37 -24z m-37 -146 c-14 -11 -20 -10 -33 3 -13 14 -13 17 5 30 18
13 21 13 33 -3 11 -15 10 -20 -5 -30z m-370 -7 c10 -24 -18 -39 -37 -21 -9 9
-14 21 -11 26 9 14 42 11 48 -5z m117 -81 c-7 -8 -17 -15 -22 -15 -15 0 -21
30 -8 45 10 13 14 13 27 -1 12 -12 13 -18 3 -29z m134 29 c21 -8 20 -30 -1
-38 -21 -8 -38 8 -30 28 7 18 9 18 31 10z m2216 -218 c0 -19 -127 -129 -140
-121 -22 13 -8 36 56 90 62 52 84 60 84 31z m110 -40 c0 -14 -7 -20 -177 -168
-62 -54 -117 -98 -123 -98 -5 0 -10 8 -10 18 0 21 51 73 185 185 92 78 125 94
125 63z m168 2 c2 -9 -59 -73 -145 -154 -293 -275 -328 -309 -331 -316 -6 -14
-40 -9 -45 6 -4 9 42 59 126 139 263 248 372 346 382 343 6 -1 11 -9 13 -18z
m812 -662 c0 -95 -3 -115 -16 -120 -9 -3 -342 -6 -740 -6 l-724 0 0 120 0 120
740 0 740 0 0 -114z"/>
<path d="M7998 3658 l-3 -943 -2207 -5 c-1213 -3 -2210 -8 -2214 -13 -32 -32
3 -32 2239 -29 l2217 2 0 965 c0 850 -2 965 -15 965 -13 0 -15 -114 -17 -942z"/>
<path d="M8861 3684 c-103 -111 -178 -241 -215 -374 -33 -124 -37 -175 -34
-504 2 -252 6 -330 16 -334 9 -3 12 63 12 310 0 172 5 350 10 395 24 188 110
363 248 501 55 56 69 82 42 82 -4 0 -40 -34 -79 -76z"/>
<path d="M10090 3716 c0 -10 23 -44 52 -75 28 -31 60 -71 71 -88 23 -40 27
-41 27 -4 0 23 -17 47 -75 108 -52 55 -74 72 -75 59z"/>
<path d="M3358 2783 c7 -3 16 -2 19 1 4 3 -2 6 -13 5 -11 0 -14 -3 -6 -6z"/>
<path d="M2393 2762 c-15 -2 -20 -8 -16 -19 5 -13 1 -15 -21 -11 -23 5 -26 3
-20 -16 3 -11 15 -29 26 -38 19 -17 57 -18 498 -18 413 0 479 -2 484 -15 3 -8
12 -12 21 -9 8 4 22 1 30 -6 8 -6 20 -10 27 -8 7 3 29 -12 48 -31 38 -38 56
-71 40 -71 -6 0 -9 -12 -9 -27 1 -18 3 -22 6 -10 9 36 28 9 31 -44 4 -59 -27
-206 -39 -187 -8 12 -23 4 -25 -13 -1 -5 -2 -13 -3 -19 0 -5 -10 -10 -21 -10
-11 0 -20 -5 -20 -11 0 -5 -17 -18 -37 -27 -34 -15 -96 -18 -539 -22 -508 -5
-534 -7 -534 -41 0 -5 235 -9 535 -9 468 0 540 2 575 16 22 9 40 20 40 24 0 4
10 10 23 14 20 5 97 113 97 137 0 5 3 9 8 9 8 0 7 209 -2 217 -3 4 -6 14 -6
22 0 9 -9 22 -20 29 -12 7 -18 16 -16 21 3 5 -10 22 -29 40 -19 17 -35 36 -35
41 0 6 -3 9 -7 8 -5 -1 -24 5 -43 13 -85 38 -100 39 -578 39 -285 0 -472 4
-472 9 0 5 10 11 23 13 12 2 18 5 12 9 -5 3 -20 3 -32 1z"/>
<path d="M3285 2760 c-19 -8 -19 -9 3 -9 12 -1 22 4 22 9 0 6 -1 10 -2 9 -2 0
-12 -4 -23 -9z"/>
<path d="M3540 2626 c0 -10 28 -13 41 -5 10 6 7 9 -13 9 -16 0 -28 -2 -28 -4z"/>
<path d="M3635 2580 c9 -30 13 -35 21 -27 3 3 -2 16 -11 29 l-17 23 7 -25z"/>
<path d="M9537 2554 c-3 -4 5 -27 20 -53 14 -25 32 -66 39 -91 16 -51 18 -183
5 -226 -5 -16 -17 -56 -27 -89 -9 -33 -20 -64 -24 -70 -4 -5 -17 -37 -28 -70
-11 -33 -34 -98 -51 -145 -72 -206 -111 -375 -111 -484 1 -146 55 -291 145
-385 89 -93 183 -131 330 -131 153 0 267 48 360 152 30 33 45 59 45 77 l-1 26
-21 -30 c-61 -85 -151 -153 -243 -182 -59 -20 -221 -19 -281 2 -187 63 -303
243 -304 472 0 112 53 341 110 478 5 11 20 54 35 95 15 41 31 84 36 95 4 11
21 56 36 100 23 69 27 96 27 200 1 110 -1 124 -25 170 -47 91 -57 104 -72 89z"/>
<path d="M770 2325 c0 -96 2 -175 4 -175 2 0 32 15 68 34 101 52 99 52 188 6
44 -22 81 -39 81 -38 5 9 7 270 3 306 l-5 42 -170 0 -169 0 0 -175z"/>
<path d="M3677 2447 c-4 -10 -3 -25 1 -34 11 -18 -3 -83 -31 -143 -11 -25 -21
-48 -21 -53 -2 -13 -57 -77 -67 -77 -6 0 -24 -14 -40 -31 -16 -17 -33 -28 -38
-25 -5 3 -14 -1 -21 -9 -7 -8 -22 -15 -33 -15 -11 0 -17 -3 -13 -7 4 -5 101
-10 214 -13 l207 -5 9 -97 8 -98 132 0 c72 0 137 -4 145 -9 11 -7 7 -23 -22
-82 -19 -41 -70 -146 -112 -234 -43 -88 -101 -209 -130 -270 -207 -432 -224
-464 -247 -470 -13 -3 -59 -5 -103 -3 l-80 3 -6 90 c-3 50 -12 106 -19 125
-34 89 -115 180 -200 222 l-45 23 -750 6 c-412 4 -1057 7 -1432 8 l-683 1 0
-45 0 -45 1368 0 c1198 0 1372 -2 1411 -16 86 -30 134 -66 173 -129 62 -103
62 -208 0 -309 -33 -53 -67 -82 -132 -114 l-55 -27 -1382 -3 -1382 -2 -3 -28
-3 -27 -148 -3 c-122 -2 -147 -5 -147 -17 0 -13 617 -15 5120 -15 4540 0 5120
2 5120 15 0 13 -183 15 -1562 17 l-1563 3 -3 75 c-3 101 -21 136 -88 172 -28
15 -58 18 -178 18 -172 0 -203 5 -212 34 -4 11 -19 48 -34 81 -58 125 -90 197
-90 200 0 2 -14 34 -31 72 -17 37 -37 82 -44 98 -7 17 -28 62 -45 100 -17 39
-38 84 -45 100 -7 17 -24 55 -38 85 -120 266 -128 284 -115 292 7 4 22 6 33 3
11 -2 443 -5 961 -5 l941 0 27 -55 c55 -108 147 -185 263 -220 90 -27 83 -44
83 210 0 124 -4 225 -8 225 -5 0 -29 -19 -53 -42 -165 -158 -198 -188 -207
-188 -5 0 -12 7 -16 15 -5 14 84 106 236 245 39 35 48 49 48 76 0 19 -4 34
-10 34 -5 0 -57 -41 -115 -91 -98 -84 -125 -98 -125 -64 0 7 56 62 125 121
l125 108 0 88 c0 63 -4 90 -13 94 -11 4 -86 -18 -139 -41 -15 -6 -18 -2 -18
24 l0 31 -2319 0 -2320 0 -3 33 c-2 25 -5 28 -11 14z m4758 -218 c7 -10 -101
-119 -118 -119 -4 0 -11 8 -14 17 -5 12 9 30 46 65 52 48 74 57 86 37z"/>
<path d="M2462 2310 c0 -14 2 -19 5 -12 2 6 2 18 0 25 -3 6 -5 1 -5 -13z"/>
<path d="M2440 2264 c0 -8 5 -12 10 -9 6 4 8 11 5 16 -9 14 -15 11 -15 -7z"/>
<path d="M0 1915 c0 -13 93 -15 802 -13 630 2 802 6 806 16 3 9 -162 12 -802
12 -711 0 -806 -2 -806 -15z"/>
<path d="M2848 1550 c-2 -111 1 -170 7 -170 6 0 45 18 88 39 l78 39 83 -44
c46 -24 86 -41 89 -37 9 8 9 306 1 327 -5 14 -30 16 -175 16 l-168 0 -3 -170z"/>
<path d="M0 1340 c0 -20 7 -20 798 -20 438 0 807 3 820 6 18 5 20 9 11 20 -10
12 -145 14 -820 14 -802 0 -809 0 -809 -20z"/>
<path d="M937 933 c-4 -3 -7 -80 -7 -170 0 -126 3 -163 13 -163 7 0 47 18 89
40 l76 39 65 -33 c117 -61 107 -73 107 123 l0 171 -168 0 c-93 0 -172 -3 -175
-7z"/>
</g>
</svg>
